<svg xmlns="http://www.w3.org/2000/svg" width="512" height="512" viewBox="0 0 512 512">
  <g transform="translate(56 56)" fill="#2b0a5e">
    <rect x="0" y="0" width="112" height="112"/>
    <rect x="32" y="32" width="48" height="48"/>

    <rect x="288" y="0" width="112" height="112"/>
    <rect x="320" y="32" width="48" height="48"/>

    <rect x="0" y="288" width="112" height="112"/>
    <rect x="32" y="320" width="48" height="48"/>

    <rect x="144" y="80" width="16" height="16"/>
    <rect x="176" y="80" width="16" height="16"/>
    <rect x="208" y="80" width="16" height="16"/>
    <rect x="240" y="80" width="16" height="16"/>
    <rect x="272" y="80" width="16" height="16"/>

    <rect x="144" y="144" width="16" height="16"/>
    <rect x="160" y="160" width="16" height="16"/>
    <rect x="176" y="144" width="16" height="16"/>
    <rect x="208" y="144" width="16" height="16"/>
    <rect x="224" y="160" width="16" height="16"/>
    <rect x="256" y="144" width="16" height="16"/>
    <rect x="272" y="160" width="16" height="16"/>
    <rect x="304" y="144" width="16" height="16"/>
    <rect x="320" y="160" width="16" height="16"/>
    <rect x="336" y="144" width="16" height="16"/>

    <rect x="144" y="192" width="16" height="16"/>
    <rect x="160" y="208" width="16" height="16"/>
    <rect x="176" y="192" width="16" height="16"/>
    <rect x="208" y="192" width="16" height="16"/>
    <rect x="240" y="192" width="16" height="16"/>
    <rect x="256" y="208" width="16" height="16"/>
    <rect x="288" y="192" width="16" height="16"/>
    <rect x="320" y="192" width="16" height="16"/>
    <rect x="352" y="192" width="16" height="16"/>

    <rect x="144" y="240" width="16" height="16"/>
    <rect x="176" y="240" width="16" height="16"/>
    <rect x="192" y="256" width="16" height="16"/>
    <rect x="224" y="240" width="16" height="16"/>
    <rect x="240" y="256" width="16" height="16"/>
    <rect x="272" y="240" width="16" height="16"/>
    <rect x="288" y="256" width="16" height="16"/>
    <rect x="320" y="240" width="16" height="16"/>
    <rect x="336" y="256" width="16" height="16"/>
    <rect x="352" y="240" width="16" height="16"/>

    <rect x="144" y="288" width="16" height="16"/>
    <rect x="160" y="304" width="16" height="16"/>
    <rect x="192" y="288" width="16" height="16"/>
    <rect x="224" y="288" width="16" height="16"/>
    <rect x="240" y="304" width="16" height="16"/>
    <rect x="272" y="288" width="16" height="16"/>
    <rect x="304" y="288" width="16" height="16"/>
    <rect x="320" y="304" width="16" height="16"/>
    <rect x="352" y="288" width="16" height="16"/>

    <rect x="144" y="336" width="16" height="16"/>
    <rect x="176" y="336" width="16" height="16"/>
    <rect x="208" y="336" width="16" height="16"/>
    <rect x="224" y="352" width="16" height="16"/>
    <rect x="256" y="336" width="16" height="16"/>
    <rect x="272" y="352" width="16" height="16"/>
    <rect x="304" y="336" width="16" height="16"/>
    <rect x="336" y="336" width="16" height="16"/>
    <rect x="352" y="352" width="16" height="16"/>

    <rect x="144" y="384" width="16" height="16"/>
    <rect x="160" y="400" width="16" height="16"/>
    <rect x="192" y="384" width="16" height="16"/>
    <rect x="224" y="384" width="16" height="16"/>
    <rect x="240" y="400" width="16" height="16"/>
    <rect x="272" y="384" width="16" height="16"/>
    <rect x="288" y="400" width="16" height="16"/>
    <rect x="320" y="384" width="16" height="16"/>
    <rect x="336" y="400" width="16" height="16"/>
  </g>
</svg>
