<svg xmlns="http://www.w3.org/2000/svg" width="512" height="512" viewBox="0 0 512 512">
  <rect width="512" height="512" fill="#ffffff"/>
  <rect x="20" y="20" width="472" height="472" rx="28" fill="#0b1a3a"/>
  <rect x="28" y="28" width="456" height="456" rx="24" fill="#ffffff"/>

  <!-- QR grid -->
  <g transform="translate(56 56)" fill="#0f172a">
    <!-- Finder patterns -->
    <rect x="0" y="0" width="112" height="112"/>
    <rect x="16" y="16" width="80" height="80" fill="#ffffff"/>
    <rect x="32" y="32" width="48" height="48"/>

    <rect x="288" y="0" width="112" height="112"/>
    <rect x="304" y="16" width="80" height="80" fill="#ffffff"/>
    <rect x="320" y="32" width="48" height="48"/>

    <rect x="0" y="288" width="112" height="112"/>
    <rect x="16" y="304" width="80" height="80" fill="#ffffff"/>
    <rect x="32" y="320" width="48" height="48"/>

    <!-- Timing-like row -->
    <rect x="144" y="80" width="16" height="16"/>
    <rect x="176" y="80" width="16" height="16"/>
    <rect x="208" y="80" width="16" height="16"/>
    <rect x="240" y="80" width="16" height="16"/>
    <rect x="272" y="80" width="16" height="16"/>

    <!-- Module field -->
    <rect x="144" y="144" width="16" height="16"/>
    <rect x="160" y="160" width="16" height="16"/>
    <rect x="176" y="144" width="16" height="16"/>
    <rect x="208" y="144" width="16" height="16"/>
    <rect x="224" y="160" width="16" height="16"/>
    <rect x="256" y="144" width="16" height="16"/>
    <rect x="272" y="160" width="16" height="16"/>
    <rect x="304" y="144" width="16" height="16"/>
    <rect x="320" y="160" width="16" height="16"/>
    <rect x="336" y="144" width="16" height="16"/>

    <rect x="144" y="192" width="16" height="16"/>
    <rect x="160" y="208" width="16" height="16"/>
    <rect x="176" y="192" width="16" height="16"/>
    <rect x="208" y="192" width="16" height="16"/>
    <rect x="240" y="192" width="16" height="16"/>
    <rect x="256" y="208" width="16" height="16"/>
    <rect x="288" y="192" width="16" height="16"/>
    <rect x="320" y="192" width="16" height="16"/>
    <rect x="352" y="192" width="16" height="16"/>

    <rect x="144" y="240" width="16" height="16"/>
    <rect x="176" y="240" width="16" height="16"/>
    <rect x="192" y="256" width="16" height="16"/>
    <rect x="224" y="240" width="16" height="16"/>
    <rect x="240" y="256" width="16" height="16"/>
    <rect x="272" y="240" width="16" height="16"/>
    <rect x="288" y="256" width="16" height="16"/>
    <rect x="320" y="240" width="16" height="16"/>
    <rect x="336" y="256" width="16" height="16"/>
    <rect x="352" y="240" width="16" height="16"/>

    <rect x="144" y="288" width="16" height="16"/>
    <rect x="160" y="304" width="16" height="16"/>
    <rect x="192" y="288" width="16" height="16"/>
    <rect x="224" y="288" width="16" height="16"/>
    <rect x="240" y="304" width="16" height="16"/>
    <rect x="272" y="288" width="16" height="16"/>
    <rect x="304" y="288" width="16" height="16"/>
    <rect x="320" y="304" width="16" height="16"/>
    <rect x="352" y="288" width="16" height="16"/>

    <rect x="144" y="336" width="16" height="16"/>
    <rect x="176" y="336" width="16" height="16"/>
    <rect x="208" y="336" width="16" height="16"/>
    <rect x="224" y="352" width="16" height="16"/>
    <rect x="256" y="336" width="16" height="16"/>
    <rect x="272" y="352" width="16" height="16"/>
    <rect x="304" y="336" width="16" height="16"/>
    <rect x="336" y="336" width="16" height="16"/>
    <rect x="352" y="352" width="16" height="16"/>

    <rect x="144" y="384" width="16" height="16"/>
    <rect x="160" y="400" width="16" height="16"/>
    <rect x="192" y="384" width="16" height="16"/>
    <rect x="224" y="384" width="16" height="16"/>
    <rect x="240" y="400" width="16" height="16"/>
    <rect x="272" y="384" width="16" height="16"/>
    <rect x="288" y="400" width="16" height="16"/>
    <rect x="320" y="384" width="16" height="16"/>
    <rect x="336" y="400" width="16" height="16"/>
  </g>
</svg>
