<svg xmlns="http://www.w3.org/2000/svg" width="512" height="512" viewBox="0 0 512 512">
  <defs>
    <linearGradient id="bg" x1="0" y1="0" x2="1" y2="1">
      <stop offset="0" stop-color="#0b1a3a"/>
      <stop offset="0.5" stop-color="#5b21b6"/>
      <stop offset="1" stop-color="#8b5cf6"/>
    </linearGradient>
    <linearGradient id="glow" x1="0" y1="1" x2="1" y2="0">
      <stop offset="0" stop-color="#ffffff" stop-opacity="0.12"/>
      <stop offset="1" stop-color="#ffffff" stop-opacity="0"/>
    </linearGradient>
  </defs>
  <rect x="24" y="24" width="464" height="464" rx="64" fill="url(#bg)"/>
  <rect x="24" y="24" width="464" height="464" rx="64" fill="url(#glow)"/>
  <rect x="72" y="72" width="120" height="120" rx="20" fill="#0f172a"/>
  <rect x="320" y="72" width="120" height="120" rx="20" fill="#0f172a"/>
  <rect x="72" y="320" width="120" height="120" rx="20" fill="#0f172a"/>
  <rect x="104" y="104" width="56" height="56" rx="12" fill="#f8fafc"/>
  <rect x="352" y="104" width="56" height="56" rx="12" fill="#f8fafc"/>
  <rect x="104" y="352" width="56" height="56" rx="12" fill="#f8fafc"/>
  <circle cx="256" cy="256" r="78" fill="#0f172a"/>
  <circle cx="256" cy="256" r="60" fill="#111827"/>
  <text x="256" y="266" text-anchor="middle" font-size="44" font-family="Arial, Helvetica, sans-serif" fill="#f8fafc" letter-spacing="4">
    QR
  </text>
  <text x="256" y="308" text-anchor="middle" font-size="18" font-family="Arial, Helvetica, sans-serif" fill="#e2e8f0" letter-spacing="2">
    DASH
  </text>
</svg>
